<svg width="160" height="28" viewBox="0 0 160 28" fill="none" xmlns="http://www.w3.org/2000/svg">
<g clip-path="url(#clip0_502_827)">
<path d="M95.3849 1.07715H78.9747C76.7088 1.07715 74.8721 3.00577 74.8721 5.38484V22.6156C74.8721 24.9947 76.7088 26.9233 78.9747 26.9233H95.3849C97.6507 26.9233 99.4875 24.9947 99.4875 22.6156V5.38484C99.4875 3.00577 97.6507 1.07715 95.3849 1.07715Z" stroke="white" stroke-width="2.2"/>
<path fill-rule="evenodd" clip-rule="evenodd" d="M85.2564 8.61572H83.0771V19.5193H85.2564V8.61572Z" fill="white"/>
<path fill-rule="evenodd" clip-rule="evenodd" d="M84.9219 8.61572H87.3821C88.7019 8.65844 89.9544 9.25131 90.8739 10.2687C91.7934 11.286 92.3078 12.6478 92.3078 14.0654C92.3078 15.483 91.7934 16.8447 90.8739 17.862C89.9544 18.8794 88.7019 19.4723 87.3821 19.5151H84.9219V17.4362H87.2929C88.1086 17.4088 88.8823 17.0417 89.4503 16.4126C90.0183 15.7834 90.336 14.9418 90.336 14.0656C90.336 13.1895 90.0183 12.3478 89.4503 11.7187C88.8823 11.0895 88.1086 10.7225 87.2929 10.695H84.924V8.61572H84.9219Z" fill="white"/>
<path d="M125.128 1.07715H108.718C106.452 1.07715 104.615 3.00577 104.615 5.38484V22.6156C104.615 24.9947 106.452 26.9233 108.718 26.9233H125.128C127.394 26.9233 129.23 24.9947 129.23 22.6156V5.38484C129.23 3.00577 127.394 1.07715 125.128 1.07715Z" stroke="white" stroke-width="2.2"/>
<path fill-rule="evenodd" clip-rule="evenodd" d="M114.796 8.61572H112.645V19.3849H114.796V8.61572Z" fill="white"/>
<path fill-rule="evenodd" clip-rule="evenodd" d="M114.796 8.61603L113.036 9.94582L119.22 19.3805L120.979 18.0507L114.794 8.61603H114.796Z" fill="white"/>
<path fill-rule="evenodd" clip-rule="evenodd" d="M121.357 8.61572H119.204V19.3849H121.357V8.61572Z" fill="white"/>
<path d="M154.872 1.07715H138.462C136.195 1.07715 134.358 3.00577 134.358 5.38484V22.6156C134.358 24.9947 136.195 26.9233 138.462 26.9233H154.872C157.137 26.9233 158.974 24.9947 158.974 22.6156V5.38484C158.974 3.00577 157.137 1.07715 154.872 1.07715Z" stroke="white" stroke-width="2.2"/>
<path fill-rule="evenodd" clip-rule="evenodd" d="M143.641 15.4326L148.109 8.61572H150.719L143.683 19.38L143.64 19.3463V15.4336L143.641 15.4326Z" fill="white"/>
<path fill-rule="evenodd" clip-rule="evenodd" d="M146.769 13.3349L150.717 19.38H148.109L145.388 15.2288L146.769 13.3344V13.3349ZM143.777 8.75916L143.64 8.94881V8.64943L143.684 8.61572L143.777 8.75916Z" fill="white"/>
<path fill-rule="evenodd" clip-rule="evenodd" d="M144.717 8.61572H142.564V19.3849H144.717V8.61572Z" fill="white"/>
<path fill-rule="evenodd" clip-rule="evenodd" d="M31.6127 10.8847L32.6515 12.5358C33.0817 13.2144 33.5138 13.8908 33.9567 14.5622C34.5449 15.4524 35.1519 16.3342 35.7936 17.1753C36.3616 17.9227 36.9588 18.6481 37.5919 19.3319C38.6466 20.4943 39.85 21.4897 41.166 22.2881C41.9395 22.7435 42.7585 23.1043 43.607 23.3638C44.1836 23.5372 44.7717 23.6627 45.3665 23.739C45.9058 23.8069 46.4487 23.8379 46.9918 23.8318C47.9359 23.8224 48.8768 23.7078 49.7989 23.4899C50.6948 23.276 51.5691 22.9691 52.4097 22.5737C53.3578 22.1275 54.2637 21.5843 55.1148 20.9518C55.9793 20.3112 56.7929 19.5947 57.5471 18.8098C58.0938 18.2442 58.6098 17.6456 59.093 17.0169C59.2768 16.7778 59.4545 16.5346 59.6259 16.2873C59.7385 16.1236 59.8483 15.959 59.9522 15.79L59.9638 15.7714L63.2263 18.0332L63.1476 18.1613C62.778 18.7434 62.3805 19.3043 61.9564 19.8416C61.4182 20.5294 60.8469 21.1863 60.2446 21.8096C58.4209 23.7273 56.2932 25.2805 53.9614 26.396C53.5827 26.5732 53.1988 26.7369 52.8097 26.887C52.2366 27.1074 51.6533 27.2964 51.0621 27.453C50.2582 27.6667 49.4411 27.8186 48.6171 27.9075C48.1073 27.9628 47.5947 27.9929 47.083 28.0002C46.9859 28.0002 46.8888 28.0002 46.7918 28.0002C46.2742 28.0002 45.7568 27.9699 45.2383 27.9158C44.4715 27.8353 43.7115 27.694 42.9643 27.4926C42.0822 27.254 41.2219 26.9317 40.3931 26.5295C39.8379 26.2591 39.2971 25.9557 38.7736 25.6205C38.3729 25.3642 37.9823 25.0913 37.6016 24.8023C37.333 24.5938 37.0689 24.3811 36.8092 24.1643C35.0793 22.6519 33.527 20.9192 32.1864 19.0047C31.9923 18.7358 31.8001 18.4644 31.6097 18.1907V10.8827L31.6127 10.8847ZM31.6127 18.1927C31.2663 17.643 30.92 17.0931 30.5738 16.5426C30.1445 15.863 29.7125 15.1875 29.2698 14.5152C28.6804 13.625 28.0744 12.7432 27.4317 11.9021C26.8664 11.1518 26.2663 10.4327 25.6335 9.74746C24.5792 8.58417 23.3758 7.58842 22.0593 6.79032C20.7599 6.01924 19.3335 5.5265 17.8589 5.33939C17.3196 5.27063 16.7767 5.23925 16.2335 5.24556C15.2893 5.25488 14.3486 5.36981 13.4264 5.58848C12.5309 5.80216 11.6569 6.10866 10.8165 6.50365C9.86898 6.95096 8.96319 7.49407 8.11144 8.12559C7.24663 8.76622 6.43279 9.48269 5.67823 10.2676C5.13163 10.8335 4.61548 11.4325 4.13241 12.0616C3.94923 12.2992 3.77151 12.5424 3.59933 12.7911C3.48769 12.9538 3.37698 13.1185 3.27309 13.2874L3.26243 13.306L0 11.0442C0.0252452 11.0014 0.0514778 10.9587 0.0776938 10.917C0.447829 10.3348 0.845777 9.77366 1.27002 9.23571C1.8075 8.54775 2.37861 7.89083 2.98087 7.26773C4.80458 5.35006 6.93226 3.79692 9.26399 2.68133C9.64266 2.50413 10.0265 2.34048 10.4155 2.19038C10.9889 1.96999 11.5722 1.7811 12.1632 1.6244C12.9676 1.41156 13.7849 1.25973 14.6091 1.16996C15.1189 1.11472 15.6306 1.08549 16.1433 1.07715C16.2403 1.07715 16.3374 1.07715 16.4345 1.07715C16.9521 1.07715 17.4706 1.10633 17.9882 1.16156C18.7544 1.24167 19.5142 1.3828 20.2612 1.58375C21.1436 1.82219 22.0044 2.14485 22.8332 2.54793C23.3886 2.81768 23.9292 3.12083 24.4529 3.45585C24.8529 3.71227 25.2431 3.98531 25.6238 4.27509C25.8938 4.48357 26.1578 4.69588 26.4161 4.912C28.1456 6.42523 29.6982 8.15775 31.0398 10.0717C31.234 10.3427 31.4283 10.6126 31.6156 10.8858V18.1938L31.6127 18.1927Z" fill="white"/>
<path fill-rule="evenodd" clip-rule="evenodd" d="M26.0873 24.0661C25.9747 23.9078 25.8708 23.7409 25.7717 23.573C25.5883 23.2604 25.4203 22.9477 25.261 22.6182C25.0494 22.1867 24.8523 21.7458 24.6638 21.3007C24.5299 20.9846 24.4004 20.6663 24.2754 20.3459L27.537 17.8901L27.6496 18.1924C27.9098 18.8836 28.1846 19.5693 28.4904 20.2385C28.5817 20.4366 28.6749 20.6336 28.7739 20.8274C28.0523 22.0599 27.1443 23.1544 26.0873 24.0661Z" fill="#00E2D0"/>
<path fill-rule="evenodd" clip-rule="evenodd" d="M23.3999 17.9463C23.3271 17.7326 23.2562 17.5189 23.1902 17.3032C23.0504 16.8459 22.9274 16.3835 22.8213 15.9158C22.6162 15.0091 22.4613 14.0902 22.3572 13.1639C22.2343 12.0849 22.1636 10.9998 22.1455 9.91289C22.13 9.08318 22.141 8.25346 22.1785 7.42375C22.1911 7.14544 22.2066 6.86603 22.2261 6.58981C22.2465 6.29378 22.2698 5.99984 22.2998 5.70485V5.68195L26.1575 6.16146C26.1498 6.24067 26.142 6.31986 26.1352 6.39908C26.1264 6.50331 26.1177 6.60023 26.1099 6.70134C26.0588 7.40389 26.0294 8.10717 26.0216 8.81112C26.0148 9.48656 26.0216 10.1661 26.0605 10.8353C26.0983 11.589 26.1575 12.3415 26.2624 13.0879C26.3401 13.6685 26.4391 14.246 26.5663 14.8162C26.613 15.0246 26.6634 15.233 26.7187 15.4415L23.3971 17.9432L23.3999 17.9463Z" fill="white"/>
<path fill-rule="evenodd" clip-rule="evenodd" d="M18.3086 27.3503C18.2542 27.2232 18.2008 27.096 18.1483 26.9689C17.9749 26.5464 17.8062 26.1217 17.6424 25.6951C17.2259 24.6059 16.8375 23.5061 16.4686 22.3949C16.132 21.3839 15.8099 20.3669 15.5024 19.3441C15.4164 19.0542 15.3303 18.7642 15.2442 18.4737C15.1675 18.2109 15.0907 17.9473 15.0199 17.6824C14.8664 17.1112 14.7286 16.536 14.6121 15.9481C14.6005 15.8887 14.5879 15.8303 14.5762 15.7708L18.5658 15.7864C18.6512 16.1481 18.7436 16.5088 18.8455 16.8664C18.9076 17.08 18.9707 17.2936 19.0329 17.5074C19.5368 19.2075 20.0738 20.897 20.666 22.5639C20.8953 23.2081 21.1311 23.8491 21.3796 24.4838C21.5652 24.9582 21.7565 25.4293 21.9623 25.8942L22.0021 25.9817L22.2128 26.4206C20.9568 26.9181 19.6437 27.2307 18.3095 27.3503H18.3086Z" fill="#00E2D0"/>
<path fill-rule="evenodd" clip-rule="evenodd" d="M14.1762 13.2713C14.1403 12.9836 14.1062 12.6979 14.0791 12.4114C13.9423 11.1428 13.8596 9.86589 13.8188 8.589C13.7852 7.51676 13.7811 6.44279 13.8063 5.36707C13.816 4.95013 13.8306 4.53318 13.8499 4.11623C13.8673 3.74829 13.8878 3.38137 13.9159 3.01445V2.98633L17.7853 3.347C17.7784 3.4283 17.7737 3.50962 17.7678 3.59091C17.7601 3.71183 17.7523 3.83275 17.7454 3.9547C17.6872 5.03458 17.6633 6.1165 17.6736 7.20055C17.6833 8.34715 17.728 9.49379 17.8164 10.6403C17.8843 11.5253 17.9775 12.4123 18.1075 13.288L14.1801 13.2734L14.1762 13.2713Z" fill="white"/>
<path fill-rule="evenodd" clip-rule="evenodd" d="M8.91119 24.8413C8.79467 24.5168 8.68045 24.1919 8.56848 23.8667C8.39758 23.3684 8.23347 22.8678 8.07617 22.3647L12.5038 23.2548C12.7477 23.9359 13.0025 24.6117 13.2678 25.2822C13.5087 25.891 13.7534 26.4965 14.0165 27.0959C12.1941 26.7087 10.4598 25.9427 8.91119 24.8413Z" fill="#00E2D0"/>
<path fill-rule="evenodd" clip-rule="evenodd" d="M7.44587 5.93362L9.63053 5.82941V5.90448C9.67229 6.85199 9.72758 7.79844 9.79457 8.74385C9.88066 9.99468 9.98749 11.2455 10.115 12.4963C10.2228 13.5315 10.3461 14.5633 10.5034 15.591C10.617 16.3593 10.7452 17.1265 10.9103 17.8842C11.0753 18.6421 11.2783 19.4165 11.4986 20.1774C11.5336 20.2973 11.5685 20.4161 11.6045 20.536L7.32152 19.6751C7.25355 19.3967 7.18855 19.1185 7.12739 18.8412C6.94097 17.9854 6.79527 17.1213 6.66614 16.254C6.50497 15.1617 6.37485 14.0651 6.25929 12.9644C6.11753 11.6031 6.00492 10.2365 5.91172 8.86996C5.88745 8.5166 5.86511 8.16427 5.84375 7.81093C6.32111 7.13585 6.85794 6.51169 7.44681 5.94716L7.44587 5.93362Z" fill="white"/>
<path fill-rule="evenodd" clip-rule="evenodd" d="M37.1378 5.0108C37.2504 5.16924 37.3543 5.33598 37.4534 5.50379C37.637 5.8165 37.8049 6.13444 37.9641 6.45861C38.1767 6.89119 38.3739 7.33104 38.5613 7.77612C38.6953 8.09301 38.8247 8.4116 38.9497 8.73195L35.6882 11.1889C35.6513 11.0846 35.6135 10.9804 35.5756 10.8844C35.3164 10.1934 35.0415 9.50855 34.7347 8.83935C34.6448 8.64061 34.5505 8.44398 34.4521 8.2494C35.1735 7.01709 36.0811 5.92255 37.1378 5.0108Z" fill="#00E2D0"/>
<path fill-rule="evenodd" clip-rule="evenodd" d="M39.8217 11.1317C39.8945 11.3401 39.9654 11.558 40.0314 11.7738C40.1722 12.2313 40.2945 12.6942 40.4014 13.1622C40.6058 14.0685 40.7607 14.9871 40.8655 15.9129C40.9876 16.9922 41.0579 18.0772 41.0761 19.164C41.0917 19.9939 41.0807 20.8238 41.0432 21.6543C41.0302 21.9322 41.0147 22.2101 40.9966 22.488C40.9762 22.7832 40.9519 23.0781 40.9218 23.372V23.3949L37.0641 22.9155C37.0729 22.8373 37.0797 22.7581 37.0875 22.679C37.0962 22.5746 37.1039 22.4766 37.1117 22.3755C37.1628 21.6745 37.1923 20.9712 37.2 20.2659C37.2078 19.5911 37.1952 18.9164 37.1622 18.2416C37.1244 17.488 37.0593 16.7364 36.9593 15.989C36.8816 15.4085 36.7826 14.831 36.6563 14.2608C36.6088 14.0524 36.5592 13.8438 36.5029 13.6355L39.8245 11.1337L39.8217 11.1317Z" fill="white"/>
<path fill-rule="evenodd" clip-rule="evenodd" d="M44.9179 1.72717C44.9712 1.85331 45.0246 1.9815 45.0772 2.10763C45.2518 2.53013 45.4205 2.9551 45.583 3.38246C45.9995 4.47171 46.3879 5.57139 46.7579 6.68149C47.0945 7.69396 47.4162 8.71135 47.7229 9.73355C47.8103 10.0223 47.8958 10.3131 47.9813 10.6039C48.0579 10.8666 48.1347 11.125 48.2056 11.3939C48.3602 11.9673 48.4962 12.5455 48.6134 13.1285C48.6259 13.1879 48.6377 13.2473 48.6492 13.3066L44.6595 13.2911C44.5754 12.9283 44.4821 12.5681 44.3798 12.2102C44.3188 11.9965 44.2556 11.7828 44.1925 11.5692C43.6886 9.86904 43.1517 8.17938 42.5594 6.51264C42.3314 5.86848 42.0937 5.22848 41.8458 4.59264C41.6604 4.11941 41.47 3.64716 41.2632 3.18333L41.2243 3.09578L41.0137 2.65591C42.2697 2.15857 43.5827 1.84615 44.917 1.72717H44.9179Z" fill="#00E2D0"/>
<path fill-rule="evenodd" clip-rule="evenodd" d="M49.0535 15.8106C49.0904 16.0963 49.1234 16.383 49.1506 16.6695C49.2865 17.9381 49.3691 19.2139 49.4099 20.4908C49.4442 21.5645 49.4483 22.6384 49.4225 23.7128C49.4128 24.1298 49.3982 24.5466 49.3787 24.9636C49.3622 25.3316 49.3409 25.6994 49.3128 26.0663V26.0945L45.4434 25.7339C45.4499 25.6526 45.4557 25.5713 45.4609 25.49C45.4687 25.3681 45.4765 25.2472 45.4832 25.1262C45.5415 24.0456 45.5655 22.9633 45.5551 21.8793C45.5454 20.7326 45.5008 19.5861 45.4133 18.4394C45.3454 17.5535 45.2512 16.6675 45.1221 15.7919L49.0487 15.8076L49.0535 15.8106Z" fill="white"/>
<path fill-rule="evenodd" clip-rule="evenodd" d="M54.3143 4.23966C54.4322 4.56418 54.5464 4.88942 54.6571 5.21533C54.8279 5.71359 54.9924 6.21424 55.1504 6.71736L50.7217 5.82718C50.4784 5.14687 50.2237 4.47106 49.9576 3.79979C49.7168 3.19105 49.4721 2.58545 49.209 1.98608C51.0315 2.37231 52.766 3.13789 54.3143 4.23966Z" fill="#00E2D0"/>
<path fill-rule="evenodd" clip-rule="evenodd" d="M55.7808 23.1446L53.5962 23.2488C53.5962 23.2228 53.5962 23.1978 53.5962 23.1728C53.5553 22.2263 53.4991 21.2789 53.433 20.3334C53.3456 19.0825 53.2388 17.8319 53.1116 16.581C53.0049 15.5469 52.8805 14.514 52.7291 13.4863C52.6145 12.7179 52.4873 11.9507 52.3222 11.1931C52.1572 10.4352 51.9532 9.65967 51.7339 8.89979C51.6989 8.77993 51.663 8.66008 51.627 8.54022L55.91 9.40119C55.9778 9.6795 56.043 9.95779 56.1041 10.2351C56.2905 11.0898 56.4363 11.955 56.5644 12.8211C56.7265 13.9135 56.8557 15.0101 56.9723 16.1109C57.1133 17.4729 57.2289 18.8377 57.3188 20.2052C57.3434 20.5582 57.3661 20.9112 57.3868 21.2642C56.9099 21.9397 56.3734 22.5642 55.7847 23.129L55.7808 23.1446Z" fill="white"/>
</g>
<defs>
<clipPath id="clip0_502_827">
<rect width="160" height="28" fill="white"/>
</clipPath>
</defs>
</svg>
