<svg width="145" height="34" viewBox="0 0 145 34" fill="none" xmlns="http://www.w3.org/2000/svg">
<path d="M25.1001 17.1732L25.3997 17L25.1001 16.8268L20.1001 13.9368L19.8 13.7634V14.11V19.89V20.2366L20.1001 20.0632L25.1001 17.1732ZM20.9 12.5532L25.8997 15.443C25.8997 15.443 25.8998 15.4431 25.8998 15.4431C26.1725 15.6013 26.3989 15.8284 26.5562 16.1016C26.7136 16.3749 26.7965 16.6847 26.7965 17C26.7965 17.3153 26.7136 17.6251 26.5562 17.8984C26.3989 18.1716 26.1725 18.3987 25.8998 18.5569C25.8998 18.5569 25.8997 18.557 25.8997 18.557L20.9 21.4468C20.6264 21.6048 20.316 21.6879 20 21.6879C19.684 21.6879 19.3736 21.6048 19.1 21.4468C18.8266 21.289 18.5996 21.062 18.4416 20.7887C18.2837 20.5155 18.2003 20.2054 18.2 19.8898V14.1102C18.2003 13.7944 18.2837 13.4842 18.4419 13.2109C18.6 12.9375 18.8272 12.7105 19.1008 12.5527C19.3744 12.395 19.6847 12.312 20.0005 12.312C20.3163 12.3121 20.6265 12.3953 20.9 12.5532ZM16.5554 8.8516C18.167 7.77476 20.0617 7.2 22 7.2C23.287 7.2 24.5613 7.45348 25.7503 7.94598C26.9393 8.43848 28.0196 9.16034 28.9296 10.0704C29.8397 10.9804 30.5615 12.0607 31.054 13.2497C31.5465 14.4387 31.8 15.713 31.8 17C31.8 18.9383 31.2252 20.833 30.1484 22.4446C29.0716 24.0562 27.541 25.3123 25.7503 26.054C23.9596 26.7958 21.9891 26.9898 20.0881 26.6117C18.1871 26.2336 16.4409 25.3002 15.0704 23.9296C13.6998 22.5591 12.7664 20.8129 12.3883 18.9119C12.0102 17.0109 12.2042 15.0404 12.946 13.2497C13.6877 11.459 14.9438 9.92844 16.5554 8.8516ZM17.4443 23.8181C18.7928 24.7191 20.3782 25.2 22 25.2C24.1748 25.2 26.2605 24.3361 27.7983 22.7983C29.3361 21.2605 30.2 19.1748 30.2 17C30.2 15.3782 29.7191 13.7928 28.8181 12.4443C27.917 11.0958 26.6364 10.0448 25.138 9.42419C23.6397 8.80355 21.9909 8.64116 20.4003 8.95756C18.8096 9.27396 17.3485 10.0549 16.2017 11.2017C15.0549 12.3485 14.274 13.8096 13.9576 15.4003C13.6412 16.9909 13.8036 18.6396 14.4242 20.138C15.0448 21.6364 16.0958 22.917 17.4443 23.8181Z" fill="#161616" stroke="#F2F2F2" stroke-width="0.4"/>
<path d="M48.75 15.52C49.83 15.97 50.496 17.032 50.496 18.4C50.496 20.65 49.056 22 46.86 22H43.26V9.4H46.68C48.714 9.4 50.028 10.714 50.028 12.82C50.028 14.044 49.524 15.034 48.75 15.52ZM46.464 11.11H45.078V14.728H46.518C47.616 14.728 48.174 14.098 48.174 12.874C48.174 11.686 47.634 11.11 46.464 11.11ZM46.626 20.29C47.958 20.29 48.642 19.678 48.642 18.4C48.642 17.104 47.832 16.438 46.554 16.438H45.078V20.29H46.626ZM52.1495 22V12.514H53.8415V16.51C53.8415 17.266 53.8415 18.112 53.8055 19.138L53.8595 19.174C54.0035 18.688 54.5435 17.266 54.8495 16.492L56.6855 12.514H58.4675V22H56.7755V18.364C56.7755 17.446 56.8115 16.258 56.8655 15.304L56.8115 15.286C56.7215 15.682 56.1275 17.392 55.7495 18.202L53.9315 22H52.1495ZM59.5078 24.106V20.398H60.2278C60.7498 19.642 60.9838 18.4 61.0738 17.068C61.1638 15.556 61.2358 14.026 61.2718 12.514H66.7798V20.398H67.8598V24.106H66.1858V22H61.1818V24.106H59.5078ZM62.2078 20.398H65.0518V14.116H62.9098C62.8918 15.232 62.8558 16.348 62.7658 17.464C62.6758 18.67 62.4958 19.642 62.2078 20.398ZM73.8284 19.03H75.5744C75.4124 21.046 74.1704 22.198 72.1184 22.198C70.1384 22.198 68.8964 20.902 68.8964 18.634V15.808C68.8964 13.558 70.1384 12.28 72.1364 12.28C74.1704 12.28 75.4484 13.558 75.4484 15.808V17.914H70.6424V18.634C70.6424 19.93 71.2004 20.524 72.1544 20.524C73.2164 20.524 73.6664 20.056 73.8284 19.03ZM72.1544 13.918C71.2004 13.918 70.6424 14.494 70.6424 15.79V16.6H73.7204V15.79C73.7204 14.494 73.1444 13.918 72.1544 13.918ZM80.4002 22.216C78.3482 22.216 77.0702 20.938 77.0702 18.616V15.88C77.0702 13.558 78.3482 12.28 80.4002 12.28C82.4702 12.28 83.7482 13.558 83.7482 15.88V18.616C83.7482 20.938 82.4702 22.216 80.4002 22.216ZM80.4002 20.524C81.3902 20.524 81.9842 19.948 81.9842 18.616V15.88C81.9842 14.548 81.3902 13.972 80.4002 13.972C79.4282 13.972 78.8342 14.548 78.8342 15.88V18.616C78.8342 19.948 79.4282 20.524 80.4002 20.524ZM85.2582 18.148V16.6H89.6682V18.148H85.2582ZM94.5154 22.216C92.4634 22.216 91.1854 20.938 91.1854 18.616V15.88C91.1854 13.558 92.4634 12.28 94.5154 12.28C96.5854 12.28 97.8634 13.558 97.8634 15.88V18.616C97.8634 20.938 96.5854 22.216 94.5154 22.216ZM94.5154 20.524C95.5054 20.524 96.0994 19.948 96.0994 18.616V15.88C96.0994 14.548 95.5054 13.972 94.5154 13.972C93.5434 13.972 92.9494 14.548 92.9494 15.88V18.616C92.9494 19.948 93.5434 20.524 94.5154 20.524ZM104.373 12.514V14.152H102.195V22H100.467V14.152H98.307V12.514H104.373ZM110.388 16.996C111.126 17.338 111.792 18.13 111.792 19.192C111.792 21.046 110.478 22.216 108.462 22.216C106.392 22.216 105.15 21.028 105.06 19.228H106.734C106.806 20.056 107.4 20.596 108.462 20.596C109.47 20.596 110.082 20.074 110.082 19.102C110.082 18.292 109.506 17.806 108.48 17.806H107.274V16.456H108.426C109.29 16.456 109.812 16.006 109.812 15.178C109.812 14.422 109.326 13.918 108.444 13.918C107.49 13.918 107.004 14.386 106.932 15.376H105.24C105.348 13.45 106.464 12.334 108.408 12.334C110.28 12.334 111.504 13.45 111.504 15.052C111.504 16.078 110.946 16.69 110.388 16.996ZM116.561 15.808C118.361 15.808 119.693 17.05 119.693 18.886C119.693 20.74 118.361 22 116.561 22H113.321V12.55H115.067V15.808H116.561ZM120.845 12.55H122.591V22H120.845V12.55ZM116.381 20.416C117.299 20.416 117.929 19.84 117.929 18.868C117.929 17.95 117.299 17.392 116.381 17.392H115.067V20.416H116.381ZM129.464 16.96C130.526 17.374 130.994 18.31 130.994 19.246C130.994 20.956 129.896 22 127.682 22H124.694V12.514H127.538C129.464 12.514 130.508 13.504 130.508 15.142C130.508 15.826 130.13 16.528 129.464 16.96ZM126.386 13.972V16.402H127.448C128.33 16.402 128.798 15.97 128.798 15.178C128.798 14.44 128.33 13.972 127.43 13.972H126.386ZM127.754 20.524C128.78 20.524 129.266 20.056 129.266 19.192C129.266 18.328 128.78 17.878 127.754 17.878H126.386V20.524H127.754Z" fill="#161616"/>
<rect x="0.5" y="0.5" width="144" height="33" rx="16.5" stroke="#161616"/>
</svg>
